<svg version="1.1" id="Layer_1" xmlns="http://www.w3.org/2000/svg" xmlns:xlink="http://www.w3.org/1999/xlink" x="0px" y="0px"
	 width="100%" viewBox="0 0 500 500" enable-background="new 0 0 500 500" xml:space="preserve">
<path fill="#D6E6F7" opacity="1.000000" stroke="none" 
	d="
M248.000000,501.000000 
	C165.333359,501.000000 83.166702,501.000000 1.000044,501.000000 
	C1.000029,334.333405 1.000029,167.666779 1.000015,1.000134 
	C167.666565,1.000089 334.333130,1.000089 500.999756,1.000045 
	C500.999847,167.666519 500.999847,334.333038 500.999939,500.999786 
	C416.833344,501.000000 332.666656,501.000000 248.000000,501.000000 
M236.721390,340.762024 
	C243.191742,337.383270 243.751175,333.008270 237.803818,328.359558 
	C231.994675,327.332947 228.692276,329.128632 228.122360,333.623871 
	C227.602432,337.725067 230.792786,340.592743 236.721390,340.762024 
M267.834076,165.325241 
	C266.158417,162.532013 264.482758,159.738770 262.807098,156.945526 
	C262.338409,157.120560 261.869720,157.295578 261.401031,157.470612 
	C260.866180,161.595261 260.331360,165.719894 259.796509,169.844543 
	C260.283447,169.917847 260.770416,169.991150 261.257355,170.064453 
	C261.824463,167.643616 262.391602,165.222778 263.126099,162.087433 
	C264.640869,164.190552 265.750916,165.731735 266.886627,167.939789 
	C267.746979,169.162308 268.607361,170.384827 269.467712,171.607346 
	C269.872406,171.477066 270.277130,171.346786 270.681824,171.216507 
	C271.206726,167.157822 271.731628,163.099136 272.256531,159.040451 
	C271.913910,159.007690 271.571259,158.974930 271.228638,158.942169 
	C270.131561,161.303635 269.034515,163.665100 267.834076,165.325241 
M171.229050,207.351135 
	C173.756866,207.913025 176.284668,208.474915 178.812485,209.036804 
	C178.961426,208.756409 179.110367,208.476013 179.259308,208.195633 
	C175.602737,206.144409 171.946152,204.093201 168.289581,202.041977 
	C167.902695,202.385147 167.515808,202.728317 167.128937,203.071487 
	C168.411072,204.909485 169.693222,206.747482 172.028641,208.464035 
	C172.565659,211.047256 171.693848,212.266907 168.880722,212.170685 
	C166.563065,212.091446 164.231522,212.418335 161.906143,212.565247 
	C161.817520,213.066422 161.728897,213.567612 161.640289,214.068787 
	C165.285278,216.074265 168.930267,218.079758 172.575256,220.085236 
	C172.862030,219.641205 173.148804,219.197159 173.435577,218.753113 
	C171.406281,217.368835 169.376968,215.984558 166.186295,213.808060 
	C169.943634,213.808060 172.189880,213.808060 175.409653,213.808060 
	C173.575562,211.418701 172.279175,209.729843 171.229050,207.351135 
M258.818726,329.385010 
	C255.766678,329.156158 252.714615,328.927307 249.333221,328.673737 
	C249.692413,333.535217 249.992981,337.603302 250.366013,342.651978 
	C253.718231,341.626892 256.422058,340.800079 259.830841,339.939758 
	C264.025299,336.113525 263.856049,333.016968 258.818726,329.385010 
M203.210785,182.382660 
	C203.927856,178.846115 202.582779,176.073471 199.364197,174.840057 
	C194.650467,173.033630 191.857239,176.579910 188.606552,179.259796 
	C190.702606,182.140091 192.720901,184.736603 194.540710,187.465485 
	C196.258102,190.040817 197.276794,189.080841 198.940384,186.994522 
	C200.294403,185.669128 201.648422,184.343735 203.210785,182.382660 
M254.326675,278.942291 
	C253.210739,279.626892 252.100082,280.320282 250.977829,280.994415 
	C247.850555,282.872864 247.780396,285.757050 248.591690,288.773773 
	C249.448654,291.960327 251.706161,293.208466 255.409363,293.340668 
	C262.502411,294.922119 263.445038,294.739044 264.362305,288.801453 
	C264.816772,285.859558 263.865204,282.372559 262.586823,279.571686 
	C260.890808,275.855774 257.994446,275.063660 254.326675,278.942291 
M247.724045,271.843109 
	C248.885651,271.219055 250.099838,270.675629 251.200378,269.957947 
	C258.538055,265.172699 258.342285,256.952179 250.790298,252.628098 
	C249.354523,251.805984 247.839828,251.121719 245.758942,250.012253 
	C243.345490,247.998978 241.497345,248.657669 239.530426,250.911499 
	C234.599854,256.561310 234.677963,265.846039 239.899734,272.305450 
	C242.493546,275.514069 244.889099,275.941589 247.724045,271.843109 
M258.408447,226.014694 
	C258.244110,225.989548 258.065063,225.996490 257.919800,225.929794 
	C257.786713,225.868668 257.578552,225.656143 257.593567,225.632858 
	C258.187622,224.711151 258.778870,223.785706 259.420441,222.896805 
	C263.004181,217.931473 262.655396,213.007065 258.423370,209.038605 
	C254.259567,205.134125 248.264954,204.947998 243.900497,208.587677 
	C239.558548,212.208572 238.560394,217.753601 242.177429,222.339294 
	C244.299347,225.029465 244.778824,227.807434 243.748810,230.434662 
	C241.812332,235.374023 244.607651,238.073166 247.815842,240.499969 
	C250.305710,242.383392 253.258408,243.654968 256.433258,245.664841 
	C257.695190,246.397949 258.957123,247.131073 260.243958,247.878632 
	C262.668365,245.768845 264.910706,243.817505 267.748169,242.182831 
	C269.655334,244.670593 271.573120,247.150284 273.467377,249.647827 
	C277.180542,254.543564 281.994232,255.988052 286.415497,254.001099 
	C288.083313,253.251556 290.341187,253.022812 292.114777,253.450211 
	C297.314362,254.703125 299.574432,253.736145 302.067657,248.844620 
	C302.618317,247.764297 304.000793,246.390259 305.009033,246.383057 
	C309.790222,246.348862 310.266632,243.608765 309.215149,240.073242 
	C306.505920,230.963531 301.118622,223.590103 292.957855,218.871613 
	C289.972107,217.145264 285.442749,216.525131 282.090576,217.341812 
	C276.244629,218.766006 270.765289,221.695023 264.369415,223.974823 
	C262.595306,224.636047 260.821228,225.297256 258.408447,226.014694 
M236.015625,223.149979 
	C231.380264,221.329971 226.852661,219.105835 222.071945,217.830856 
	C218.841156,216.969254 214.736084,216.279114 211.918701,217.530701 
	C201.621124,222.105209 195.286774,230.430466 192.686523,241.408188 
	C192.027481,244.190552 193.043259,246.165848 196.455246,246.475403 
	C197.692963,246.587708 199.321365,247.710495 199.903015,248.825348 
	C202.550812,253.900452 204.663513,254.853271 210.327164,253.226837 
	C211.603455,252.860336 213.267166,252.597656 214.377441,253.106171 
	C220.300919,255.819122 224.273331,255.068512 228.215347,250.015976 
	C230.733215,246.788788 233.140747,243.475510 235.657791,240.120789 
	C233.288925,234.599838 230.527542,228.914932 236.015625,223.149979 
M281.149567,166.646866 
	C280.331604,169.025742 279.513611,171.404617 278.695618,173.783493 
	C279.151245,173.991180 279.606842,174.198853 280.062439,174.406540 
	C281.207703,171.982712 282.352966,169.558899 283.790314,166.516891 
	C285.218231,170.748184 286.402618,174.257904 287.587036,177.767624 
	C287.975159,177.764450 288.363281,177.761276 288.751434,177.758102 
	C290.330688,173.887192 291.909943,170.016281 293.489197,166.145370 
	C292.993958,165.917969 292.498688,165.690552 292.003418,165.463150 
	C290.808624,167.717941 289.613800,169.972717 288.150909,172.733459 
	C286.679169,168.657791 285.440125,165.226456 283.978577,161.178925 
	C283.192047,162.426193 282.889862,162.811142 282.689178,163.243225 
	C282.271027,164.143524 281.906616,165.068771 281.149567,166.646866 
M278.070770,335.124603 
	C273.323517,336.582794 273.323517,336.582794 272.438873,333.193054 
	C274.226166,332.358978 275.998077,331.532104 277.769958,330.705231 
	C277.655334,330.434753 277.540680,330.164276 277.426025,329.893799 
	C275.396515,330.235504 273.367004,330.577209 271.322174,330.921478 
	C269.256317,325.103729 276.206177,328.072144 276.898529,324.154083 
	C273.711334,324.993408 270.883423,325.738098 267.737488,326.566528 
	C269.110962,331.046875 270.300781,334.928101 271.541321,338.974792 
	C274.330444,338.224762 276.717133,337.607941 279.063904,336.864990 
	C279.162933,336.833618 278.890900,335.629974 278.070770,335.124603 
M247.601425,169.404770 
	C250.803253,167.849014 252.812759,165.203308 251.407684,161.870590 
	C250.543243,159.820190 248.135147,157.651871 246.001511,157.069046 
	C241.857300,155.937012 238.248444,159.067795 238.043335,163.047821 
	C237.815048,167.477936 241.197800,170.032364 247.601425,169.404770 
M303.662292,171.594070 
	C301.234833,174.844604 298.807343,178.095123 296.057495,181.777328 
	C298.135834,183.043289 299.710846,184.002670 301.194489,184.906372 
	C300.779694,182.735657 300.474792,181.139877 300.169861,179.544098 
	C301.735168,179.947906 303.295685,180.371887 304.868134,180.745590 
	C305.498505,180.895401 306.155182,180.934601 308.084900,181.202637 
	C305.461548,179.195312 303.932465,178.025314 302.307678,176.782074 
	C304.895996,170.555573 307.931580,178.788849 311.085175,176.263809 
	C308.612122,174.642166 306.451996,173.225693 303.662292,171.594070 
M297.869263,316.576477 
	C296.852875,316.819397 295.842346,317.226379 294.818665,317.262787 
	C293.600525,317.306091 292.371063,317.031219 291.146515,316.894226 
	C290.929840,317.317596 290.713135,317.740967 290.496460,318.164337 
	C297.229950,318.360199 298.393372,322.486908 297.207855,328.271301 
	C297.727203,328.104187 298.246582,327.937073 298.765930,327.769989 
	C299.069916,325.660950 299.373871,323.551941 299.677856,321.442719 
	C302.061737,321.841431 304.190155,322.197418 306.318573,322.553406 
	C304.397888,320.586029 301.586975,320.242737 300.390656,318.670715 
	C299.201599,317.108276 299.635803,314.310486 299.358154,312.054443 
	C299.028351,312.065308 298.698578,312.076202 298.368805,312.087067 
	C298.209229,313.280365 298.049652,314.473633 297.869263,316.576477 
M181.325897,193.548996 
	C180.338959,193.518539 179.352020,193.488068 178.365082,193.457596 
	C178.541321,192.585052 178.504684,191.582840 178.940002,190.868088 
	C179.742355,189.550659 180.821945,188.402084 181.786011,187.183151 
	C181.365219,186.870056 180.944412,186.556961 180.523605,186.243866 
	C178.649490,188.375580 176.775360,190.507294 174.677811,192.893143 
	C178.036606,195.875931 181.104477,198.600388 184.338470,201.472351 
	C185.742981,199.786972 186.901611,198.396652 188.060257,197.006317 
	C182.843155,198.965622 182.638000,198.840347 181.325897,193.548996 
M222.281326,172.202240 
	C225.632462,173.886505 228.591339,173.753815 231.007828,171.252213 
	C227.996063,170.752823 224.268204,171.194489 222.964310,169.623856 
	C221.629257,168.015701 222.668518,164.436462 222.668518,161.938171 
	C218.599121,163.960785 218.230789,166.439957 222.281326,172.202240 
M315.000977,185.530823 
	C310.598022,189.685791 310.446106,192.627182 313.733276,195.134430 
	C314.306854,192.854523 314.193329,189.398209 315.847076,187.922714 
	C317.264526,186.658051 320.704987,187.660828 322.957123,187.660828 
	C322.189789,184.082367 318.900238,184.589081 315.000977,185.530823 
M331.306885,199.945786 
	C330.453156,201.200012 329.794891,202.671310 328.699738,203.657425 
	C327.065491,205.128891 325.123352,206.258377 323.312195,207.533340 
	C323.623199,207.963364 323.934204,208.393402 324.245209,208.823425 
	C327.237976,206.967484 330.230743,205.111557 333.201569,203.269226 
	C334.267578,204.225876 335.262909,205.119110 336.258240,206.012329 
	C336.645050,205.605087 337.031891,205.197845 337.418701,204.790588 
	C335.356323,202.903931 333.293976,201.017258 331.306885,199.945786 
M214.267349,333.408905 
	C213.581482,330.966980 212.895615,328.525055 212.209763,326.083130 
	C211.710648,326.164886 211.211533,326.246613 210.712433,326.328369 
	C211.242401,328.892822 211.033279,332.077576 212.515106,333.843140 
	C213.930618,335.529694 217.106323,335.738892 219.508301,336.597473 
	C219.666199,336.066010 219.824112,335.534515 219.982010,335.003021 
	C218.305542,334.617889 216.629074,334.232758 214.267349,333.408905 
M250.823303,301.150635 
	C247.459991,299.619873 244.096695,298.089111 240.733383,296.558380 
	C240.550095,298.729919 241.186127,301.596924 242.308044,301.801697 
	C245.213211,302.331879 248.332474,301.688873 250.823303,301.150635 
M303.873627,185.962845 
	C303.709320,185.896561 303.545013,185.830261 303.380707,185.763977 
	C303.488953,185.615723 303.597198,185.467468 303.705414,185.319199 
	C303.755798,185.456299 303.806152,185.593414 303.873627,185.962845 
z"/>
<path fill="#42B6EB" opacity="1.000000" stroke="none" 
	d="
M265.132294,223.993317 
	C270.765289,221.695023 276.244629,218.766006 282.090576,217.341812 
	C285.442749,216.525131 289.972107,217.145264 292.957855,218.871613 
	C301.118622,223.590103 306.505920,230.963531 309.215149,240.073242 
	C310.266632,243.608765 309.790222,246.348862 305.009033,246.383057 
	C304.000793,246.390259 302.618317,247.764297 302.067657,248.844620 
	C299.574432,253.736145 297.314362,254.703125 292.114777,253.450211 
	C290.341187,253.022812 288.083313,253.251556 286.415497,254.001099 
	C281.994232,255.988052 277.180542,254.543564 273.467377,249.647827 
	C271.573120,247.150284 269.655334,244.670593 267.405518,241.650177 
	C267.776733,238.772339 268.425964,236.405090 269.218170,234.086700 
	C270.782043,229.510040 269.938202,225.964264 265.132294,223.993317 
z"/>
<path fill="#42B6EB" opacity="1.000000" stroke="none" 
	d="
M236.247101,223.396057 
	C230.527542,228.914932 233.288925,234.599838 235.657791,240.120789 
	C233.140747,243.475510 230.733215,246.788788 228.215347,250.015976 
	C224.273331,255.068512 220.300919,255.819122 214.377441,253.106171 
	C213.267166,252.597656 211.603455,252.860336 210.327164,253.226837 
	C204.663513,254.853271 202.550812,253.900452 199.903015,248.825348 
	C199.321365,247.710495 197.692963,246.587708 196.455246,246.475403 
	C193.043259,246.165848 192.027481,244.190552 192.686523,241.408188 
	C195.286774,230.430466 201.621124,222.105209 211.918701,217.530701 
	C214.736084,216.279114 218.841156,216.969254 222.071945,217.830856 
	C226.852661,219.105835 231.380264,221.329971 236.247101,223.396057 
M200.774506,232.301575 
	C202.242661,230.297485 203.710800,228.293396 205.178940,226.289307 
	C204.708298,225.963089 204.237640,225.636871 203.766998,225.310669 
	C201.377533,228.597809 198.988083,231.884949 196.598633,235.172104 
	C197.017990,235.486877 197.437332,235.801651 197.856689,236.116425 
	C198.689011,235.041824 199.521332,233.967239 200.774506,232.301575 
M215.267212,222.095978 
	C216.006638,222.027130 216.746063,221.958298 217.896393,221.851196 
	C213.291824,219.293396 208.322815,220.707794 205.413239,225.108871 
	C208.487244,224.085648 211.484848,223.087860 215.267212,222.095978 
z"/>
<path fill="#42B6EB" opacity="1.000000" stroke="none" 
	d="
M256.005371,245.198517 
	C253.258408,243.654968 250.305710,242.383392 247.815842,240.499969 
	C244.607651,238.073166 241.812332,235.374023 243.748810,230.434662 
	C244.778824,227.807434 244.299347,225.029465 242.177429,222.339294 
	C238.560394,217.753601 239.558548,212.208572 243.900497,208.587677 
	C248.264954,204.947998 254.259567,205.134125 258.423370,209.038605 
	C262.655396,213.007065 263.004181,217.931473 259.420441,222.896805 
	C258.778870,223.785706 258.187622,224.711151 257.593567,225.632858 
	C257.578552,225.656143 257.786713,225.868668 257.919800,225.929794 
	C258.065063,225.996490 258.244110,225.989548 258.730713,226.415054 
	C260.800201,233.401184 257.029480,239.072174 256.005371,245.198517 
z"/>
<path fill="#AED7F4" opacity="1.000000" stroke="none" 
	d="
M247.025665,271.871735 
	C244.889099,275.941589 242.493546,275.514069 239.899734,272.305450 
	C234.677963,265.846039 234.599854,256.561310 239.530426,250.911499 
	C241.497345,248.657669 243.345490,247.998978 245.997040,250.591919 
	C246.498642,258.071655 246.762146,264.971680 247.025665,271.871735 
z"/>
<path fill="#AED7F4" opacity="1.000000" stroke="none" 
	d="
M256.219299,245.431671 
	C257.029480,239.072174 260.800201,233.401184 259.050049,226.386932 
	C260.821228,225.297256 262.595306,224.636047 264.750854,223.984070 
	C269.938202,225.964264 270.782043,229.510040 269.218170,234.086700 
	C268.425964,236.405090 267.776733,238.772339 267.107971,241.491837 
	C264.910706,243.817505 262.668365,245.768845 260.243958,247.878632 
	C258.957123,247.131073 257.695190,246.397949 256.219299,245.431671 
z"/>
<path fill="#42B6EB" opacity="1.000000" stroke="none" 
	d="
M247.374847,271.857422 
	C246.762146,264.971680 246.498642,258.071655 246.298340,250.772720 
	C247.839828,251.121719 249.354523,251.805984 250.790298,252.628098 
	C258.342285,256.952179 258.538055,265.172699 251.200378,269.957947 
	C250.099838,270.675629 248.885651,271.219055 247.374847,271.857422 
z"/>
<path fill="#AED7F4" opacity="1.000000" stroke="none" 
	d="
M255.022522,278.712372 
	C257.994446,275.063660 260.890808,275.855774 262.586823,279.571686 
	C263.865204,282.372559 264.816772,285.859558 264.362305,288.801453 
	C263.445038,294.739044 262.502411,294.922119 255.142822,292.600189 
	C254.925034,287.477264 254.973770,283.094818 255.022522,278.712372 
z"/>
<path fill="#1E2022" opacity="1.000000" stroke="none" 
	d="
M281.334839,166.315308 
	C281.906616,165.068771 282.271027,164.143524 282.689178,163.243225 
	C282.889862,162.811142 283.192047,162.426193 283.978577,161.178925 
	C285.440125,165.226456 286.679169,168.657791 288.150909,172.733459 
	C289.613800,169.972717 290.808624,167.717941 292.003418,165.463150 
	C292.498688,165.690552 292.993958,165.917969 293.489197,166.145370 
	C291.909943,170.016281 290.330688,173.887192 288.751434,177.758102 
	C288.363281,177.761276 287.975159,177.764450 287.587036,177.767624 
	C286.402618,174.257904 285.218231,170.748184 283.790314,166.516891 
	C282.352966,169.558899 281.207703,171.982712 280.062439,174.406540 
	C279.606842,174.198853 279.151245,173.991180 278.695618,173.783493 
	C279.513611,171.404617 280.331604,169.025742 281.334839,166.315308 
z"/>
<path fill="#2A2D30" opacity="1.000000" stroke="none" 
	d="
M278.431244,335.048523 
	C278.890900,335.629974 279.162933,336.833618 279.063904,336.864990 
	C276.717133,337.607941 274.330444,338.224762 271.541321,338.974792 
	C270.300781,334.928101 269.110962,331.046875 267.737488,326.566528 
	C270.883423,325.738098 273.711334,324.993408 276.898529,324.154083 
	C276.206177,328.072144 269.256317,325.103729 271.322174,330.921478 
	C273.367004,330.577209 275.396515,330.235504 277.426025,329.893799 
	C277.540680,330.164276 277.655334,330.434753 277.769958,330.705231 
	C275.998077,331.532104 274.226166,332.358978 272.438873,333.193054 
	C273.323517,336.582794 273.323517,336.582794 278.431244,335.048523 
z"/>
<path fill="#25282B" opacity="1.000000" stroke="none" 
	d="
M247.237091,169.559967 
	C241.197800,170.032364 237.815048,167.477936 238.043335,163.047821 
	C238.248444,159.067795 241.857300,155.937012 246.001511,157.069046 
	C248.135147,157.651871 250.543243,159.820190 251.407684,161.870590 
	C252.812759,165.203308 250.803253,167.849014 247.237091,169.559967 
M249.482635,164.948730 
	C248.536133,162.939621 248.063095,160.036591 246.492950,159.204971 
	C245.242294,158.542557 241.928894,159.885864 240.892609,161.321487 
	C240.102600,162.415970 240.797195,165.731201 241.977417,166.857376 
	C244.368408,169.138916 247.150665,168.533279 249.482635,164.948730 
z"/>
<path fill="#C7D6E6" opacity="1.000000" stroke="none" 
	d="
M203.002441,183.018341 
	C201.648422,184.343735 200.294403,185.669128 198.235657,186.893158 
	C195.345718,184.452957 193.160538,182.114105 190.972031,179.771729 
	C197.272049,174.163269 199.256195,174.825012 201.252686,182.640640 
	C201.318619,182.898697 202.396347,182.898270 203.002441,183.018341 
z"/>
<path fill="#42B6EB" opacity="1.000000" stroke="none" 
	d="
M254.674591,278.827332 
	C254.973770,283.094818 254.925034,287.477264 254.908905,292.301575 
	C251.706161,293.208466 249.448654,291.960327 248.591690,288.773773 
	C247.780396,285.757050 247.850555,282.872864 250.977829,280.994415 
	C252.100082,280.320282 253.210739,279.626892 254.674591,278.827332 
z"/>
<path fill="#1E2022" opacity="1.000000" stroke="none" 
	d="
M303.977051,171.701660 
	C306.451996,173.225693 308.612122,174.642166 311.085175,176.263809 
	C307.931580,178.788849 304.895996,170.555573 302.307678,176.782074 
	C303.932465,178.025314 305.461548,179.195312 308.084900,181.202637 
	C306.155182,180.934601 305.498505,180.895401 304.868134,180.745590 
	C303.295685,180.371887 301.735168,179.947906 300.169861,179.544098 
	C300.474792,181.139877 300.779694,182.735657 301.194489,184.906372 
	C299.710846,184.002670 298.135834,183.043289 296.057495,181.777328 
	C298.807343,178.095123 301.234833,174.844604 303.977051,171.701660 
z"/>
<path fill="#2A2D30" opacity="1.000000" stroke="none" 
	d="
M297.879700,316.121704 
	C298.049652,314.473633 298.209229,313.280365 298.368805,312.087067 
	C298.698578,312.076202 299.028351,312.065308 299.358154,312.054443 
	C299.635803,314.310486 299.201599,317.108276 300.390656,318.670715 
	C301.586975,320.242737 304.397888,320.586029 306.318573,322.553406 
	C304.190155,322.197418 302.061737,321.841431 299.677856,321.442719 
	C299.373871,323.551941 299.069916,325.660950 298.765930,327.769989 
	C298.246582,327.937073 297.727203,328.104187 297.207855,328.271301 
	C298.393372,322.486908 297.229950,318.360199 290.496460,318.164337 
	C290.713135,317.740967 290.929840,317.317596 291.146515,316.894226 
	C292.371063,317.031219 293.600525,317.306091 294.818665,317.262787 
	C295.842346,317.226379 296.852875,316.819397 297.879700,316.121704 
z"/>
<path fill="#1E2022" opacity="1.000000" stroke="none" 
	d="
M203.106613,182.700500 
	C202.396347,182.898270 201.318619,182.898697 201.252686,182.640640 
	C199.256195,174.825012 197.272049,174.163269 190.972031,179.771729 
	C193.160538,182.114105 195.345718,184.452957 197.885757,186.875320 
	C197.276794,189.080841 196.258102,190.040817 194.540710,187.465485 
	C192.720901,184.736603 190.702606,182.140091 188.606552,179.259796 
	C191.857239,176.579910 194.650467,173.033630 199.364197,174.840057 
	C202.582779,176.073471 203.927856,178.846115 203.106613,182.700500 
z"/>
<path fill="#25282B" opacity="1.000000" stroke="none" 
	d="
M181.698074,193.384628 
	C182.638000,198.840347 182.843155,198.965622 188.060257,197.006317 
	C186.901611,198.396652 185.742981,199.786972 184.338470,201.472351 
	C181.104477,198.600388 178.036606,195.875931 174.677811,192.893143 
	C176.775360,190.507294 178.649490,188.375580 180.523605,186.243866 
	C180.944412,186.556961 181.365219,186.870056 181.786011,187.183151 
	C180.821945,188.402084 179.742355,189.550659 178.940002,190.868088 
	C178.504684,191.582840 178.541321,192.585052 178.365082,193.457596 
	C179.352020,193.488068 180.338959,193.518539 181.698074,193.384628 
z"/>
<path fill="#2A2D30" opacity="1.000000" stroke="none" 
	d="
M259.125885,339.973267 
	C256.422058,340.800079 253.718231,341.626892 250.366013,342.651978 
	C249.992981,337.603302 249.692413,333.535217 249.333221,328.673737 
	C252.714615,328.927307 255.766678,329.156158 258.919128,330.016174 
	C259.038940,330.888489 259.058411,331.129639 258.620056,331.207520 
	C256.037537,330.911804 253.912888,330.779358 251.542892,330.631622 
	C251.861450,334.350952 252.094925,337.076752 252.360001,340.171600 
	C254.505264,339.716095 256.257904,339.343964 258.092834,339.235352 
	C258.492035,339.657013 258.808960,339.815155 259.125885,339.973267 
z"/>
<path fill="#2A2D30" opacity="1.000000" stroke="none" 
	d="
M170.982803,208.040985 
	C172.279175,209.729843 173.575562,211.418701 175.409653,213.808060 
	C172.189880,213.808060 169.943634,213.808060 166.186295,213.808060 
	C169.376968,215.984558 171.406281,217.368835 173.435577,218.753113 
	C173.148804,219.197159 172.862030,219.641205 172.575256,220.085236 
	C168.930267,218.079758 165.285278,216.074265 161.640289,214.068787 
	C161.728897,213.567612 161.817520,213.066422 161.906143,212.565247 
	C164.231522,212.418335 166.563065,212.091446 168.880722,212.170685 
	C171.693848,212.266907 172.565659,211.047256 171.478851,208.388290 
	C170.929062,208.312546 170.982803,208.040985 170.982803,208.040985 
z"/>
<path fill="#25282B" opacity="1.000000" stroke="none" 
	d="
M221.978836,171.996384 
	C218.230789,166.439957 218.599121,163.960785 222.668518,161.938171 
	C222.668518,164.436462 221.629257,168.015701 222.964310,169.623856 
	C224.268204,171.194489 227.996063,170.752823 231.007828,171.252213 
	C228.591339,173.753815 225.632462,173.886505 221.978836,171.996384 
z"/>
<path fill="#2A2D30" opacity="1.000000" stroke="none" 
	d="
M315.296875,185.333313 
	C318.900238,184.589081 322.189789,184.082367 322.957123,187.660828 
	C320.704987,187.660828 317.264526,186.658051 315.847076,187.922714 
	C314.193329,189.398209 314.306854,192.854523 313.733276,195.134430 
	C310.446106,192.627182 310.598022,189.685791 315.296875,185.333313 
z"/>
<path fill="#25282B" opacity="1.000000" stroke="none" 
	d="
M266.860962,167.272903 
	C265.750916,165.731735 264.640869,164.190552 263.126099,162.087433 
	C262.391602,165.222778 261.824463,167.643616 261.257355,170.064453 
	C260.770416,169.991150 260.283447,169.917847 259.796509,169.844543 
	C260.331360,165.719894 260.866180,161.595261 261.401031,157.470612 
	C261.869720,157.295578 262.338409,157.120560 262.807098,156.945526 
	C264.482758,159.738770 266.158417,162.532013 267.651520,165.830704 
	C267.266296,166.648422 267.063629,166.960663 266.860962,167.272903 
z"/>
<path fill="#1E2022" opacity="1.000000" stroke="none" 
	d="
M331.269226,199.538193 
	C333.293976,201.017258 335.356323,202.903931 337.418701,204.790588 
	C337.031891,205.197845 336.645050,205.605087 336.258240,206.012329 
	C335.262909,205.119110 334.267578,204.225876 333.201569,203.269226 
	C330.230743,205.111557 327.237976,206.967484 324.245209,208.823425 
	C323.934204,208.393402 323.623199,207.963364 323.312195,207.533340 
	C325.123352,206.258377 327.065491,205.128891 328.699738,203.657425 
	C329.794891,202.671310 330.453156,201.200012 331.269226,199.538193 
z"/>
<path fill="#2A2D30" opacity="1.000000" stroke="none" 
	d="
M236.017365,340.720276 
	C230.792786,340.592743 227.602432,337.725067 228.122360,333.623871 
	C228.692276,329.128632 231.994675,327.332947 237.788391,328.730957 
	C237.520905,329.339325 237.268860,329.576294 236.604065,329.788513 
	C232.894730,329.347137 230.481369,330.552399 230.247574,334.011322 
	C229.988480,337.844757 232.651840,339.041351 236.011566,339.410461 
	C236.012344,340.021759 236.014847,340.371002 236.017365,340.720276 
z"/>
<path fill="#1E2022" opacity="1.000000" stroke="none" 
	d="
M266.873779,167.606354 
	C267.063629,166.960663 267.266296,166.648422 267.703186,166.181366 
	C269.034515,163.665100 270.131561,161.303635 271.228638,158.942169 
	C271.571259,158.974930 271.913910,159.007690 272.256531,159.040451 
	C271.731628,163.099136 271.206726,167.157822 270.681824,171.216507 
	C270.277130,171.346786 269.872406,171.477066 269.467712,171.607346 
	C268.607361,170.384827 267.746979,169.162308 266.873779,167.606354 
z"/>
<path fill="#1E2022" opacity="1.000000" stroke="none" 
	d="
M214.609985,333.628235 
	C216.629074,334.232758 218.305542,334.617889 219.982010,335.003021 
	C219.824112,335.534515 219.666199,336.066010 219.508301,336.597473 
	C217.106323,335.738892 213.930618,335.529694 212.515106,333.843140 
	C211.033279,332.077576 211.242401,328.892822 210.712433,326.328369 
	C211.211533,326.246613 211.710648,326.164886 212.209763,326.083130 
	C212.895615,328.525055 213.581482,330.966980 214.609985,333.628235 
z"/>
<path fill="#1E2022" opacity="1.000000" stroke="none" 
	d="
M171.105927,207.696060 
	C170.982803,208.040985 170.929062,208.312546 170.952209,208.449005 
	C169.693222,206.747482 168.411072,204.909485 167.128937,203.071487 
	C167.515808,202.728317 167.902695,202.385147 168.289581,202.041977 
	C171.946152,204.093201 175.602737,206.144409 179.259308,208.195633 
	C179.110367,208.476013 178.961426,208.756409 178.812485,209.036804 
	C176.284668,208.474915 173.756866,207.913025 171.105927,207.696060 
z"/>
<path fill="#AED7F4" opacity="1.000000" stroke="none" 
	d="
M251.094788,301.332458 
	C248.332474,301.688873 245.213211,302.331879 242.308044,301.801697 
	C241.186127,301.596924 240.550095,298.729919 240.733383,296.558380 
	C244.096695,298.089111 247.459991,299.619873 251.094788,301.332458 
z"/>
<path fill="#1E2022" opacity="1.000000" stroke="none" 
	d="
M236.369385,340.741150 
	C236.014847,340.371002 236.012344,340.021759 236.350632,339.293182 
	C241.059799,335.454956 241.118851,333.803345 237.016815,329.813232 
	C237.268860,329.576294 237.520905,329.339325 238.007599,328.985229 
	C243.751175,333.008270 243.191742,337.383270 236.369385,340.741150 
z"/>
<path fill="#C7D6E6" opacity="1.000000" stroke="none" 
	d="
M259.077881,331.370758 
	C259.058411,331.129639 259.038940,330.888489 259.152771,330.309875 
	C263.856049,333.016968 264.025299,336.113525 259.478363,339.956512 
	C258.808960,339.815155 258.492035,339.657013 258.230255,338.924530 
	C259.273590,337.583405 260.261780,336.816650 260.985199,336.255341 
	C260.180878,334.195526 259.629395,332.783142 259.077881,331.370758 
z"/>
<path fill="#1E2022" opacity="1.000000" stroke="none" 
	d="
M303.865051,185.846680 
	C303.806152,185.593414 303.755798,185.456299 303.705414,185.319199 
	C303.597198,185.467468 303.488953,185.615723 303.380707,185.763977 
	C303.545013,185.830261 303.709320,185.896561 303.865051,185.846680 
z"/>
<path fill="#D6E6F7" opacity="1.000000" stroke="none" 
	d="
M200.564087,232.597107 
	C199.521332,233.967239 198.689011,235.041824 197.856689,236.116425 
	C197.437332,235.801651 197.017990,235.486877 196.598633,235.172104 
	C198.988083,231.884949 201.377533,228.597809 203.766998,225.310669 
	C204.237640,225.636871 204.708298,225.963089 205.178940,226.289307 
	C203.710800,228.293396 202.242661,230.297485 200.564087,232.597107 
z"/>
<path fill="#D6E6F7" opacity="1.000000" stroke="none" 
	d="
M214.874817,222.093018 
	C211.484848,223.087860 208.487244,224.085648 205.413239,225.108871 
	C208.322815,220.707794 213.291824,219.293396 217.896393,221.851196 
	C216.746063,221.958298 216.006638,222.027130 214.874817,222.093018 
z"/>
<path fill="#C7D6E6" opacity="1.000000" stroke="none" 
	d="
M249.303436,165.296051 
	C247.150665,168.533279 244.368408,169.138916 241.977417,166.857376 
	C240.797195,165.731201 240.102600,162.415970 240.892609,161.321487 
	C241.928894,159.885864 245.242294,158.542557 246.492950,159.204971 
	C248.063095,160.036591 248.536133,162.939621 249.303436,165.296051 
z"/>
<path fill="#D6E6F7" opacity="1.000000" stroke="none" 
	d="
M258.620056,331.207520 
	C259.629395,332.783142 260.180878,334.195526 260.985199,336.255341 
	C260.261780,336.816650 259.273590,337.583405 258.147949,338.661011 
	C256.257904,339.343964 254.505264,339.716095 252.360001,340.171600 
	C252.094925,337.076752 251.861450,334.350952 251.542892,330.631622 
	C253.912888,330.779358 256.037537,330.911804 258.620056,331.207520 
z"/>
<path fill="#C7D6E6" opacity="1.000000" stroke="none" 
	d="
M236.604065,329.788513 
	C241.118851,333.803345 241.059799,335.454956 236.352356,339.031158 
	C232.651840,339.041351 229.988480,337.844757 230.247574,334.011322 
	C230.481369,330.552399 232.894730,329.347137 236.604065,329.788513 
z"/>
</svg>